<svg width="20" height="20" viewBox="0 0 20 20" fill="none" xmlns="http://www.w3.org/2000/svg">
<path d="M8.32589 11.4131C8.32589 12.2248 7.70089 12.4813 6.93304 12.4813H4.91964V10.2565H6.97321C7.80357 10.2607 8.32589 10.5845 8.32589 11.4131ZM7.98214 7.95176C7.98214 7.20735 7.37054 7.03071 6.69196 7.03071H4.92411V8.91487H6.83036C7.50446 8.91487 7.98214 8.63729 7.98214 7.95176ZM13.8884 8.92749C13.0714 8.92749 12.5268 9.40694 12.4732 10.1766H15.25C15.1741 9.39853 14.7455 8.92749 13.8884 8.92749ZM20 2.4549V17.259C20 18.3735 19.0402 19.2777 17.8571 19.2777H2.14286C0.959821 19.2777 0 18.3735 0 17.259V2.4549C0 1.34038 0.959821 0.436157 2.14286 0.436157H17.8571C19.0402 0.436157 20 1.34038 20 2.4549ZM12.1295 6.87089H15.6027V6.07601H12.1295V6.87089ZM10.2098 11.5098C10.2098 10.4962 9.70089 9.62143 8.64732 9.33965C9.41518 8.99478 9.81696 8.59523 9.81696 7.78353C9.81696 6.17695 8.54464 5.78582 7.07589 5.78582H3.03571V13.8608H7.19196C8.75 13.8524 10.2098 13.15 10.2098 11.5098ZM16.9643 10.8873C16.9643 9.1588 15.8884 7.71624 13.9464 7.71624C12.0536 7.71624 10.7723 9.05366 10.7723 10.8116C10.7723 12.6327 11.9911 13.8818 13.9464 13.8818C15.4286 13.8818 16.3884 13.2552 16.8527 11.9135H15.3482C15.183 12.414 14.5179 12.6748 14 12.6748C13 12.6748 12.4777 12.1238 12.4777 11.1902H16.9509C16.9554 11.0934 16.9643 10.9883 16.9643 10.8873Z" fill="white"/>
</svg>
