<svg width="20" height="19" viewBox="0 0 20 19" fill="none" xmlns="http://www.w3.org/2000/svg">
<path d="M17.8571 0H2.14286C1.57454 0 1.02949 0.212688 0.627628 0.591274C0.225765 0.96986 0 1.48333 0 2.01873L0 16.8228C0 17.3582 0.225765 17.8717 0.627628 18.2502C1.02949 18.6288 1.57454 18.8415 2.14286 18.8415H8.27009V12.4358H5.45759V9.42076H8.27009V7.12277C8.27009 4.50893 9.92188 3.06511 12.4518 3.06511C13.6634 3.06511 14.9304 3.26867 14.9304 3.26867V5.83414H13.5344C12.1589 5.83414 11.7299 6.63827 11.7299 7.46301V9.42076H14.8004L14.3094 12.4358H11.7299V18.8415H17.8571C18.4255 18.8415 18.9705 18.6288 19.3724 18.2502C19.7742 17.8717 20 17.3582 20 16.8228V2.01873C20 1.48333 19.7742 0.96986 19.3724 0.591274C18.9705 0.212688 18.4255 0 17.8571 0Z" fill="white"/>
</svg>
