<svg width="21" height="20" viewBox="0 0 21 20" fill="none" xmlns="http://www.w3.org/2000/svg">
<path d="M10.0045 5.30369C7.16615 5.30369 4.87673 7.46049 4.87673 10.1344C4.87673 12.8083 7.16615 14.9651 10.0045 14.9651C12.8428 14.9651 15.1323 12.8083 15.1323 10.1344C15.1323 7.46049 12.8428 5.30369 10.0045 5.30369ZM10.0045 13.275C8.17028 13.275 6.67077 11.8666 6.67077 10.1344C6.67077 8.40225 8.16581 6.99381 10.0045 6.99381C11.8432 6.99381 13.3382 8.40225 13.3382 10.1344C13.3382 11.8666 11.8387 13.275 10.0045 13.275ZM16.538 5.10608C16.538 5.73252 16.0025 6.23283 15.342 6.23283C14.677 6.23283 14.146 5.72832 14.146 5.10608C14.146 4.48385 14.6815 3.97934 15.342 3.97934C16.0025 3.97934 16.538 4.48385 16.538 5.10608ZM19.9342 6.24965C19.8584 4.74031 19.4924 3.40335 18.3187 2.30182C17.1494 1.2003 15.7303 0.855548 14.1281 0.779871C12.4769 0.691581 7.52763 0.691581 5.8764 0.779871C4.27871 0.851344 2.85954 1.1961 1.68582 2.29762C0.512107 3.39914 0.15062 4.73611 0.0702891 6.24545C-0.0234297 7.80103 -0.0234297 12.4636 0.0702891 14.0192C0.146157 15.5285 0.512107 16.8655 1.68582 17.967C2.85954 19.0685 4.27425 19.4133 5.8764 19.489C7.52763 19.5772 12.4769 19.5772 14.1281 19.489C15.7303 19.4175 17.1494 19.0727 18.3187 17.967C19.4879 16.8655 19.8539 15.5285 19.9342 14.0192C20.0279 12.4636 20.0279 7.80524 19.9342 6.24965ZM17.801 15.6883C17.4529 16.5123 16.779 17.1472 15.8999 17.4793C14.5833 17.9712 11.4594 17.8577 10.0045 17.8577C8.54962 17.8577 5.42119 17.967 4.10913 17.4793C3.23442 17.1514 2.56053 16.5165 2.20797 15.6883C1.68582 14.448 1.80632 11.505 1.80632 10.1344C1.80632 8.76382 1.69029 5.81661 2.20797 4.58055C2.55607 3.75651 3.22995 3.12166 4.10913 2.78952C5.42565 2.29762 8.54962 2.41114 10.0045 2.41114C11.4594 2.41114 14.5878 2.30182 15.8999 2.78952C16.7746 3.11746 17.4484 3.7523 17.801 4.58055C18.3232 5.82081 18.2027 8.76382 18.2027 10.1344C18.2027 11.505 18.3232 14.4522 17.801 15.6883Z" fill="white"/>
</svg>
