<svg width="47" height="47" viewBox="0 0 47 47" fill="none" xmlns="http://www.w3.org/2000/svg">
<path d="M0 2.68228V44.3177C0 45.7991 1.20082 47 2.68228 47H44.3177C45.7991 47 47 45.7992 47 44.3177V2.68228C46.9999 1.20082 45.7991 0 44.3177 0H2.68228C1.20082 0 0 1.20082 0 2.68228ZM21.4279 12.8148H14.052C13.3112 12.8148 12.7087 13.4173 12.7087 14.1581V21.2534H6.55448V14.1581C6.55448 10.0241 9.91798 6.66058 14.052 6.66058H21.428L21.4279 12.8148ZM40.4455 32.8419C40.4455 36.9759 37.082 40.3394 32.948 40.3394H25.572V34.1852H32.948C33.6888 34.1852 34.2913 33.5827 34.2913 32.8419V25.7466H40.4455V32.8419Z" fill="#E46826"/>
</svg>
