<svg width="44" height="44" viewBox="0 0 44 44" fill="none" xmlns="http://www.w3.org/2000/svg">
<g clip-path="url(#clip0)">
<path d="M34.5683 23.7249C34.5683 29.3846 34.5683 30.3284 29.8541 30.3284L29.8541 40.8616C40.8533 40.8616 44 33.4667 44 20.4239L44 3.13977L23.564 3.13978L23.564 20.4239L34.5683 20.4239L34.5683 23.7249Z" fill="#36847C"/>
<path d="M10.9958 20.4239L10.9958 23.7249C10.9958 29.3846 10.9958 30.3284 6.28159 30.3284L6.28159 40.8616C17.2807 40.8616 20.4258 33.4667 20.4258 20.4239L20.4258 3.13978L-5.20509e-06 3.13978L-3.69406e-06 20.4239L10.9958 20.4239Z" fill="#36847C"/>
</g>
<defs>
<clipPath id="clip0">
<rect width="44" height="44" fill="white" transform="translate(44 44) rotate(180)"/>
</clipPath>
</defs>
</svg>
